<?xml version="1.0" encoding="UTF-8"?>
<!DOCTYPE svg PUBLIC "-//W3C//DTD SVG 1.1//EN" "http://www.w3.org/Graphics/SVG/1.1/DTD/svg11.dtd">
<!-- Creator: CorelDRAW 2020 (64 Bit) -->
<svg xmlns="http://www.w3.org/2000/svg" xml:space="preserve" width="25.4mm" height="25.4mm" version="1.1" style="shape-rendering:geometricPrecision; text-rendering:geometricPrecision; image-rendering:optimizeQuality; fill-rule:evenodd; clip-rule:evenodd"
viewBox="0 0 2540 2540"
 xmlns:xlink="http://www.w3.org/1999/xlink"
 xmlns:xodm="http://www.corel.com/coreldraw/odm/2003">
 <defs>
  <style type="text/css">
   <![CDATA[
    .fil0 {fill:#141414}
    .fil1 {fill:#FEFEFE}
   ]]>
  </style>
 </defs>
 <g id="Camada_x0020_1">
  <metadata id="CorelCorpID_0Corel-Layer"/>
  <path class="fil0" d="M1330.58 1348.59l152.4 152.12c-27.43,48.84 -44.75,30.23 -59.43,93.95 93.24,86.81 560.36,578.17 621.03,598.21 44.1,-22.82 215.18,-194.07 238.03,-238.2 2.84,-32.52 -578.06,-605.08 -614.5,-620.59 -42.1,26.64 -53.51,50.23 -90.87,75.05l-150.33 -146.36c50.47,-110.03 158.25,-209.65 143.25,-450.94 -11,-177.12 -107.75,-347.77 -191.1,-424.24 -381.61,-350.13 -1034.12,-123.25 -1072.3,411.83 -14.89,208.81 57.55,336.06 148.11,460.3 62.38,85.59 229.07,192.02 395.8,214.9 216.75,29.74 343.82,-42.83 479.91,-126.03z"/>
  <path class="fil1" d="M816.78 355.82c-80.44,21.74 -112.89,33.8 -176.05,78.21 -440.89,310.04 -138.13,1049.25 426.02,906.49 236.47,-59.85 440.1,-305.49 364.96,-616.46 -56.98,-235.86 -310.19,-450.6 -614.93,-368.24z"/>
 </g>
</svg>
