<?xml version="1.0" encoding="UTF-8"?>
<!DOCTYPE svg PUBLIC "-//W3C//DTD SVG 1.1//EN" "http://www.w3.org/Graphics/SVG/1.1/DTD/svg11.dtd">
<!-- Creator: CorelDRAW 2020 (64 Bit) -->
<svg xmlns="http://www.w3.org/2000/svg" xml:space="preserve" width="25.4mm" height="25.4mm" version="1.1" style="shape-rendering:geometricPrecision; text-rendering:geometricPrecision; image-rendering:optimizeQuality; fill-rule:evenodd; clip-rule:evenodd"
viewBox="0 0 2540 2540"
 xmlns:xlink="http://www.w3.org/1999/xlink"
 xmlns:xodm="http://www.corel.com/coreldraw/odm/2003">
 <defs>
  <style type="text/css">
   <![CDATA[
    .fil0 {fill:#00AFEF}
    .fil1 {fill:white}
   ]]>
  </style>
 </defs>
 <g id="Camada_x0020_1">
  <metadata id="CorelCorpID_0Corel-Layer"/>
  <path class="fil0" d="M732.8 1850.69c82.92,21.85 550.14,-108.84 665.35,-147.71 69.68,-23.51 745.89,-723.57 855.86,-833.37 234.65,-234.29 213.77,-334.53 5.18,-543.09 -195.58,-195.56 -305.72,-232.98 -534.93,-2.75 -101.03,101.47 -812.4,798.24 -837.65,849.92 -22.93,46.94 -183.66,591.69 -153.81,677z"/>
  <path class="fil0" d="M203.81 351.47c0,367.02 -16.08,1670.46 10.37,1937.19 252.53,36.1 1478.77,12.85 1827.13,12.58 189.83,0 305.43,-87.2 305.43,-277.92l-4.79 -893.94 -119.74 0.98c-87.84,397.2 147.41,1037.32 -164.83,1037.32l-1719.39 -0.94 0.01 -1792.79 1153.48 -0.93 -1.05 -129.94c-181.27,-15.03 -931.82,-4.23 -1169.2,-4.14 -99.57,0 -117.42,12.02 -117.42,112.53z"/>
  <path class="fil1" d="M1041.68 1222.49c110.95,76.46 232.38,266.2 340.53,317.94l719.89 -719.75 -335.3 -336.44c-92.45,83.66 -692.27,669.24 -725.12,738.25z"/>
  <path class="fil1" d="M1865.6 383.62c25.79,52.47 284.62,310.7 336.46,336.68 150.31,-145.22 77.54,-189.34 -34.86,-301.82 -112.63,-112.73 -156.61,-182.52 -301.6,-34.86z"/>
  <path class="fil0" d="M1334.57 1151.13c25.44,47.3 52.76,74.65 101.7,101.51l409.47 -413.44 -91.63 -95.95 -419.54 407.88z"/>
  <polygon class="fil1" points="879.76,1697.39 1234.96,1604.54 985.35,1342.94 "/>
 </g>
</svg>
