<?xml version="1.0" encoding="UTF-8"?>
<!DOCTYPE svg PUBLIC "-//W3C//DTD SVG 1.1//EN" "http://www.w3.org/Graphics/SVG/1.1/DTD/svg11.dtd">
<!-- Creator: CorelDRAW 2020 (64 Bit) -->
<svg xmlns="http://www.w3.org/2000/svg" xml:space="preserve" width="25.4mm" height="25.4mm" version="1.1" style="shape-rendering:geometricPrecision; text-rendering:geometricPrecision; image-rendering:optimizeQuality; fill-rule:evenodd; clip-rule:evenodd"
viewBox="0 0 2540 2540"
 xmlns:xlink="http://www.w3.org/1999/xlink"
 xmlns:xodm="http://www.corel.com/coreldraw/odm/2003">
 <defs>
  <style type="text/css">
   <![CDATA[
    .fil0 {fill:#ED3237}
    .fil2 {fill:#7F7F7F}
    .fil1 {fill:white}
   ]]>
  </style>
 </defs>
 <g id="Camada_x0020_1">
  <metadata id="CorelCorpID_0Corel-Layer"/>
  <path class="fil0" d="M914.08 406.33c-29.12,3.99 -239.48,1.32 -287.22,1.32 -98.04,0 -189.67,-15.78 -248.25,42.81 -55.89,55.92 -45.86,149.28 -42.96,244.23 1.93,63.22 33.88,108.8 83.29,132.38 24.8,11.83 36.65,8.1 59.8,15.76 5.19,36.56 1.39,1156.61 1.39,1190.86 0,104.86 -8.32,172.5 39.73,254.91 34.19,58.63 88.3,107.45 168.73,131.64 65.32,19.64 209.22,11.66 287.18,11.66l595.43 0c182.72,0 353.21,31.2 456.84,-138.46 49.85,-81.6 42.59,-147.32 42.59,-255.96 0,-34.53 -3.88,-1157.47 1.39,-1194.65 25.94,-8.58 61.7,-4.78 100.46,-43.52 22.42,-22.41 40.55,-57.15 42.52,-101.22 4.2,-94.34 12.22,-192.53 -42.85,-247.63 -58.24,-58.27 -147.07,-42.81 -244.45,-42.81 -48.85,0 -261.46,2.73 -291.02,-1.32 2.01,-115.5 16.13,-205.97 -61.68,-261.27 -41.81,-29.71 -77.7,-26.61 -136.54,-26.61l-322.37 0c-59,0 -95.85,-3.68 -138.09,25.02 -80.27,54.56 -65.93,146.88 -63.92,262.86z"/>
  <path class="fil1" d="M633.48 2183.22c2.26,41.25 52.76,84.48 92.29,96.92 45.26,14.26 493.9,7.1 560.99,7.1 126.42,0 252.84,0 379.25,0 52.08,0 132.05,6.95 175.26,-13.46 33.13,-15.65 82.58,-60.59 80.49,-108.07 4.61,-327.94 2.65,-663.56 2.65,-992.93 0,-106.65 -4.56,-223.65 -0.5,-329.01l-1297.97 0c5.09,107.77 0.42,227.5 0.42,336.6l0 675.07c0,72.56 -8.35,271.76 7.12,327.78z"/>
  <path class="fil1" d="M537.48 554.89c-77.29,21.85 -65.75,103.17 -27.73,128.16 37.03,24.35 150.92,13.76 204.34,13.76 91.28,0 1272.15,5.53 1303.15,-2.7 57.09,-15.14 73.6,-93.69 21.53,-129.33 -33.19,-22.72 -151.88,-12.57 -202.09,-12.57 -87.46,0 -1272.6,-4.84 -1299.2,2.68z"/>
  <path class="fil0" d="M1257.14 1134.1c-43.26,13.24 -54.31,37.12 -54.16,91.76 0.29,109.58 -4.43,834.09 2.59,862.75 8.56,34.98 45.92,62.88 89.38,51.29 39.49,-10.53 52.94,-42.65 52.84,-91.02 -0.23,-108.72 4.24,-835.32 -2.43,-863 -8.24,-34.23 -43.51,-65.46 -88.22,-51.78z"/>
  <path class="fil0" d="M1620.01 1133.32c-42.52,10.94 -55.59,40.01 -55.49,88.7 0.22,109.78 -3.9,834.27 1.73,862.97 6.73,34.27 43.46,65.65 86.34,55.83 40.41,-9.27 56.72,-37.94 56.62,-88.14 -0.21,-110.15 3.76,-834.98 -1.67,-864.06 -6.66,-35.59 -44.58,-66.36 -87.53,-55.3z"/>
  <path class="fil0" d="M896.29 1133.77c-42.27,12.01 -54.89,41.81 -54.71,92.1 0.41,109.53 -4.62,835.06 2.71,863.18 15.1,57.88 93.31,75.45 130.77,19.54 18.71,-27.94 11.13,-157.41 11.13,-203.85 0,-74.67 3.91,-692.89 -2.08,-718.3 -8.02,-34.04 -43.87,-65.15 -87.82,-52.67z"/>
  <path class="fil1" d="M1058.42 407.65l434.08 0c-2.4,-61.42 10.32,-115.29 -44.9,-138.79 -22.47,-9.56 -321.97,-9.56 -344.44,0 -53.2,22.64 -44.45,72.14 -44.74,138.79z"/>
  <path class="fil2" d="M633.48 2183.22c-15.47,-56.02 -7.12,-255.22 -7.12,-327.78l0 -675.07c0,-109.1 4.67,-228.83 -0.42,-336.6l1297.97 0c-4.06,105.36 0.5,222.36 0.5,329.01 0,329.37 1.96,664.99 -2.65,992.93l5.7 -14.17c0.85,-5.52 0.74,-13.52 0.8,-19.23 1.84,-175.05 3.22,-1273.31 -2.73,-1291.1l-1300.57 -1.21c-6.7,21.89 -2.26,1100.43 -2.4,1265.74 -0.02,18.91 -5.34,64.8 10.92,77.48z"/>
 </g>
</svg>
