<?xml version="1.0" encoding="UTF-8"?>
<!DOCTYPE svg PUBLIC "-//W3C//DTD SVG 1.1//EN" "http://www.w3.org/Graphics/SVG/1.1/DTD/svg11.dtd">
<!-- Creator: CorelDRAW 2020 (64 Bit) -->
<svg xmlns="http://www.w3.org/2000/svg" xml:space="preserve" width="4.2332mm" height="4.2332mm" version="1.1" style="shape-rendering:geometricPrecision; text-rendering:geometricPrecision; image-rendering:optimizeQuality; fill-rule:evenodd; clip-rule:evenodd"
viewBox="0 0 423.32 423.32"
 xmlns:xlink="http://www.w3.org/1999/xlink"
 xmlns:xodm="http://www.corel.com/coreldraw/odm/2003">
 <defs>
  <style type="text/css">
   <![CDATA[
    .fil0 {fill:#FEFEFE}
   ]]>
  </style>
 </defs>
 <g id="Camada_x0020_1">
  <metadata id="CorelCorpID_0Corel-Layer"/>
  <path class="fil0" d="M50.79 174.06l0 69.54c2.78,3.03 2.62,4.37 8.58,4.42 61.4,0.54 125.19,-0.03 186.69,-0.01 -0.47,4.07 -27.67,71 -29.9,76.72 -1.12,2.85 -3.24,6.88 -1.77,10.18 1.38,3.1 5.59,5.03 9.34,2.74 2.02,-1.23 5.67,-4.21 7.65,-5.75 2.38,-1.86 4.69,-3.67 7.28,-5.63 29.4,-22.26 60.31,-46.96 89.64,-68.9 10.01,-7.49 19.85,-15.37 30.06,-23.17 7.31,-5.57 23.46,-16.58 28.89,-23.58l0 -3.88c-1.42,-1.54 -1.63,-2.4 -3.33,-3.74l-26.14 -20.05c-10.02,-7.87 -20.12,-15.4 -29.79,-22.9 -13.75,-10.68 -31.15,-24.48 -45,-34.55 -5.01,-3.64 -9.96,-7.86 -14.91,-11.43 -12.37,-8.91 -28.07,-22.07 -41.29,-31.79 -0.96,-0.7 -2.88,-2.32 -3.76,-2.7 -4.14,-1.8 -7.96,0.71 -8.91,3.9 -0.92,3.11 1.1,7.12 2.19,9.81 2.03,5.04 29.24,72.57 29.76,76.35 -57.9,-0.39 -116.76,0 -174.86,0 -13.83,0 -15.02,-1.63 -20.42,4.42z"/>
 </g>
</svg>
